<svg width="32" height="32" fill="none" xmlns="http://www.w3.org/2000/svg"><circle cx="15.886" cy="15.886" r="15.886" fill="#007AB9"/><path fill-rule="evenodd" clip-rule="evenodd" d="M9.814 6.788c-1.299 0-2.149.853-2.149 1.973 0 1.096.825 1.974 2.1 1.974h.024c1.324 0 2.148-.878 2.148-1.974-.025-1.12-.824-1.973-2.123-1.973Zm15.564 10.377v6.549h-3.797v-6.11c0-1.535-.549-2.583-1.923-2.583-1.05 0-1.673.706-1.948 1.389-.1.244-.126.583-.126.925v6.379h-3.797s.05-10.35 0-11.42h3.797v1.617a.07.07 0 0 1-.012.018c-.004.007-.01.013-.013.02h.025v-.037c.505-.777 1.405-1.887 3.423-1.887 2.498 0 4.371 1.632 4.371 5.14Zm-13.69 6.549H7.89v-11.42h3.796v11.42Z" fill="#fff"/></svg>