<svg xmlns="http://www.w3.org/2000/svg" viewBox="0 0 1440.6 438.4" style="enable-background:new 0 0 1440.6 438.4" xml:space="preserve"><style>.st0,.st1{fill:#363c41}.st1{fill-rule:evenodd;clip-rule:evenodd}.st3{fill:#fff}</style><g id="challenges"><path class="st0" d="M592.9 295.2c-2.2 22.5-23.1 38.9-49.6 38.9-30.6 0-52.7-21.8-52.7-51.9 0-30 22.1-51.9 52.6-51.9 26.3 0 47 16.5 49.5 39.4l-27 2.9c-2.2-10-11.2-17.4-21.6-17.4-14.4 0-24.3 10.9-24.3 26.9 0 16 9.9 26.9 24.1 26.9 10.4 0 19.5-7.2 21.7-17.1l27.3 3.3zm12.1 35.5v-96.9h29.3v35.5h32.2v-35.5h29.3v96.9h-29.3v-38.6h-32.2v38.6H605z"/><path class="st1" d="M776.1 330.7h30.6l-30.3-96.9h-42.6l-30.2 96.9h30.6l4.1-14.6H772l4.1 14.6zm-9.7-35.2h-22.2l11.1-37 11.1 37z"/><path class="st0" d="M814.8 330.7v-96.9h29.3v72h35.4v24.9h-64.7zm76 0v-96.9h29.3v72h35.4v24.9h-64.7zm146.1-23v23h-70.3v-96.9h68.9v22.9h-40.7v14.8h35.4v19.8h-35.4v16.5h42.1zm75.5-12.3v-61.6h27.2v96.9h-30.5l-33-61.4v61.4h-27.2v-96.9h30.5l33 61.6zm92.5-3.6v-17.1h52.6c3.5 34.4-18.2 59.3-51.5 59.3-31.4 0-54.2-21.8-54.2-51.9 0-30 22.8-51.9 54.2-51.9 23.6 0 42.4 13.5 46.9 32.5l-27 5c-2.3-7.3-10.5-12.6-20.1-12.6-14.4 0-24.8 11.2-24.8 26.9 0 15.5 10.8 26.9 26 26.9 11.8 0 21.7-7.5 22.6-17.4h-24.7v.3zm135.3 15.9v23h-70.3v-96.9h68.9v22.9h-40.7v14.8h35.4v19.8h-35.4v16.5h42.1zm8.5-8.9h25.3c.2 8.2 7.8 14.3 18.3 14.3 8.6 0 14.2-4.1 14.2-9.5 0-17.1-57.3-.3-57.3-39.9 0-20 17.1-33.3 41.4-33.3s41.8 14.2 41.9 33.8h-24.4c0-7.5-7.2-12.8-16.7-12.8-8.2 0-13.9 3.6-13.9 8.8 0 16.2 57.3-.3 57.3 39.4 0 20.5-17.9 34.5-43.4 34.5-24.8 0-42.7-14.9-42.7-35.3z"/></g><path class="st1" d="M719.2 165.8c-.2 1-.8 1.7-1.6 2.3s-1.6.8-2.3 1c-1.6.6-3.3 1-4.7 1.7-1.7.8-3.3 1.2-4.7 1.7-1.7.8-3.5 1.2-5 1.7-1.2.6-2.3 1.2-3.5 1.9-1 .8-1.7 1.7-2.5 2.9s-1 2.7-1 4.7c0 3.7 1 6.4 2.7 8.5 1.7 1.7 5 2.7 9.9 2.7s8.1-1 9.9-2.7c1.7-1.9 2.7-4.7 2.7-8.2v-18.2zm-12.8-39.4c8.7 0 14.9 1.7 19.2 5 4.1 3.5 6 7.8 6 12.8v43.7c0 1.7-.2 3.7-1 5.8-.8 2.3-1.9 4.1-3.7 5.8-1.9 1.7-4.5 3.3-7.8 4.5-3.3 1.2-7.6 1.7-12.8 1.7-5.2 0-9.5-.6-12.8-1.7-3.3-1.2-5.8-2.7-7.8-4.5-1.9-1.7-3.3-3.7-3.7-5.8-.6-2.3-1-4.1-1-5.8v-7.2c0-3.7 1-7.2 2.7-10.3 1.9-2.9 4.7-5.2 8.2-6.4 1.7-.8 3.7-1.2 6-1.9 2.3-.8 4.5-1.6 6.8-2.3 2.3-.8 4.1-1.6 5.4-1.9 1.6-.6 2.5-1 2.9-1 .2-.2 1-.6 1.6-.8.6-.2 1.2-1 1.9-1.6.6-.8 1-1.6 1.6-2.3.6-1 .6-1.9.6-3.3v-2.7c0-1-.2-1.9-.6-2.9-.2-1-1-1.9-1.9-2.7-1-1-2.3-1.6-4.1-2.3-1.6-.6-3.7-.8-6.2-.8-5 0-8.1 1-9.9 2.9-1.6 1.7-2.5 4.1-2.5 6.4 0 .6-.6 1-1 1h-10.7c-.6 0-1-.6-1-1v-2.5c0-2.5.6-4.7 1.6-7s2.5-4.1 4.5-5.8c1.9-1.6 4.7-2.9 8-3.7 3.3-.6 7-1.4 11.5-1.4zm-171.5 39.4c-.2 1-.8 1.7-1.6 2.3-.8.6-1.6.8-2.3 1-1.6.6-3.3 1-4.7 1.7-1.7.8-3.3 1.2-4.7 1.7-1.7.8-3.5 1.2-5 1.7-1.2.6-2.3 1.2-3.5 1.9-1 .8-1.7 1.7-2.5 2.9s-1 2.7-1 4.7c0 3.7 1 6.4 2.7 8.5 1.7 1.7 5 2.7 9.9 2.7s8.1-1 10.3-2.7c1.7-1.9 2.7-4.7 2.7-8.2l-.3-18.2zm-12.4-39.4c8.7 0 14.9 1.7 19.2 5 4.1 3.5 6 7.8 6 12.8v43.7c0 1.7-.2 3.7-1 5.8-.6 2.3-1.9 4.1-3.7 5.8-1.9 1.7-4.5 3.3-7.8 4.5-3.3 1.2-7.6 1.7-12.8 1.7-5.2 0-9.5-.6-12.8-1.7-3.3-1.2-5.8-2.7-7.8-4.5-1.9-1.7-3.3-3.7-3.7-5.8-.8-2.3-1-4.1-1-5.8v-7.2c0-3.7 1-7.2 2.7-10.3 1.9-2.9 4.7-5.2 8.1-6.4 1.7-.8 3.7-1.2 6-1.9 2.3-.8 4.5-1.6 6.8-2.3 2.3-.8 4.1-1.6 5.4-1.9 1.6-.6 2.5-1 2.9-1 .6 0 1-.6 1.6-.8.8-.2 1.2-1 1.9-1.6.8-.8 1-1.6 1.6-2.3.6-1 .8-1.9.8-3.3v-2.7c0-1-.2-1.9-.8-2.9-.2-1-1-1.9-1.9-2.7-1-1-2.3-1.6-4.1-2.3-1.6-.6-3.7-.8-6.2-.8-5 0-8.1 1-9.9 2.9-1.6 1.7-2.5 4.1-2.5 6.4 0 .6-.6 1-1 1H498c-.6 0-1-.6-1-1v-2.5c0-2.5.6-4.7 1.6-7s2.5-4.1 4.5-5.8c1.9-1.6 4.7-2.9 8-3.7 2.8-.6 6.9-1.4 11.4-1.4zm145.7 0h7.2c.8 0 1 .8 1 1.2l-2.5 9.3c0 .6-.6.8-1 .8H668c-2.7 0-4.7.2-6.4 1-1.6.8-2.9 1.6-3.7 2.5-1 1-1.6 1.9-1.7 2.9-.2 1-.2 1.9-.2 2.9v58.1c0 .6-.6 1-1 1h-10.7c-.6 0-1-.6-1-1v-60.6c0-1 .2-2.7.8-4.7.2-1.9 1.6-4.1 3.3-6 1.7-1.9 4.3-3.7 7.6-5.2 2.5-1.4 7.3-2.2 13.2-2.2zm-36.1 59v2.7c0 1.2-.2 2.7-.8 4.7-.2 1.9-1.6 4.1-3.3 6-1.8 1.9-4.3 3.7-7.6 5.2-3.5 1.6-8 2.3-14 2.3s-10.7-.8-14-2.3c-3.5-1.6-6-3.3-7.6-5.2-1.7-1.9-2.7-4.1-3.3-6-.2-1.9-.8-3.5-.8-4.7v-60.4c0-.6.6-1 1-1h10.7c.6 0 1 .6 1 1v56.9c0 1.9.2 3.3.6 4.3.2 1 .8 2.3 1.6 2.9.8 1 1.9 1.7 3.7 2.5 1.6.8 3.7 1 6.8 1 2.7 0 5.2-.2 7-1 1.8-.8 2.9-1.6 3.7-2.3 1-1 1.6-1.9 1.7-2.9.2-1 .8-1.9.8-4.5V128c0-.6.6-1 1-1H631c.6 0 1 .6 1 1l.1 57.4zm-73-87.7h10.7c.6 0 1 .6 1 1v106.6c0 .6-.6 1-1 1h-10.7c-.6 0-1-.6-1-1V98.7c.1-.4.4-1 1-1z" id="alura"/><g id="ícone"><path d="M102.4 11.9h218.7c54.1 0 97.6 43.6 97.6 97.6v218.8c0 54.1-43.6 97.6-97.6 97.6H102.4c-54 0-97.6-43.6-97.6-97.6V109.6c-.1-54.1 43.5-97.7 97.6-97.7z" style="fill:#da8a40"/><path class="st3" d="M204 228.7c-4.7 30.2-33.3 51.9-68.6 51.9-42.6 0-73.6-30.7-73.6-73.2 0-5.2.5-32.3 21.2-52.9 9.4-9.3 19.1-13.5 23.6-15.5 10.5-4.5 21.2-6.3 85.5-6.3h3.6c7.3 9 14.6 18.1 21.9 27-21.2-.1-50.2.3-81.4 2.1-5.7.3-14.3.9-22.8 6.5-11.8 7.7-19 21.7-19 39 0 26.7 17.4 45.5 41.8 45.5 17.4 0 33.1-11.9 37.4-28l30.4 3.9z"/><path class="st3" d="M244.4 219.3c1.1 19 18.8 33.6 40.7 33.6 25.9 0 44.6-19.2 44.6-45.5 0-16-6.6-29.3-17.4-37.3-7.9-5.9-16.1-7.1-26.1-8.3-16.2-1.8-39.4-3.4-68.5-2.1-7.3-9-14.6-18.1-21.9-27 16.2-.2 30.1-.1 41 0 23.8.2 35.8.6 41.8.9 10.3.4 15.4.7 17.3.9 6.9.9 32.4 4.6 50.3 26.2 14.7 17.7 16.1 38.4 16.1 46.6 0 42.4-31.9 73.2-76.4 73.2-46.5 0-77.3-34.6-72.8-82.4h74v21.2h-42.7zm64.7-88.4c-1.7-.6-4.1-1.4-6.9-2.2-1.6-.4-2.8-.8-4.3-1-4.3-.9-7.8-.9-12.1-1-1.3 0-3-.1-5.2 0V68.6h28.6c-.1 20.7-.1 41.6-.1 62.3z"/><path d="M219 319.6c.4 2.2 2.7 12.7 13.1 18.9 0 0 7.7 4.1 17.4 4.2 1.1 0 16-.5 25.7-11.4 7.4-8.3 7.9-18.2 8.1-22.4.1-1.1 0-1.2-.2-11.8-.1-5.4-.2-9.8-.2-12.7 3.6.3 8.1.4 13.2 0 4-.3 7.5-1 10.3-1.7v26.1c-.1 4.3-.5 17.3-8.9 29.9-6.2 9.4-14.4 14.7-19 17.2-14.7 8.1-28.7 7.7-31.4 7.6-2.9-.2-9.9-.7-18.1-3.8-2.3-.9-8.9-3.5-15.7-9.1-2.3-1.8-8.2-7-13.2-15.5-3.6-6.1-5.2-11.7-6-15.8 8.4.1 16.6.2 24.9.3z" style="fill:#fff;stroke:#fff;stroke-width:2"/><path class="st3" d="M232.1 293.8h-47.7c-6.9 0-12.4 6.4-12.4 14.2v2.7c0 7.8 5.6 14.2 12.4 14.2h47.8c6.9 0 12.4-6.4 12.4-14.2V308c-.2-7.8-5.8-14.2-12.5-14.2z"/></g></svg>